<mxfile host="app.diagrams.net" modified="2021-08-14T00:49:24.358Z" agent="5.0 (Windows NT 10.0; Win64; x64) AppleWebKit/537.36 (KHTML, like Gecko) Chrome/92.0.4515.131 Safari/537.36" etag="Cw6fjmNdZZKUwnDPj-JS" version="14.9.5" type="github">
  <diagram name="Page-1" id="c4acf3e9-155e-7222-9cf6-157b1a14988f">
    <mxGraphModel dx="1240" dy="1789" grid="1" gridSize="10" guides="1" tooltips="1" connect="1" arrows="1" fold="1" page="1" pageScale="1" pageWidth="850" pageHeight="1100" background="none" math="0" shadow="0">
      <root>
        <mxCell id="0" />
        <mxCell id="1" parent="0" />
        <mxCell id="beOxGJcbKYumJ8Pze_IX-1" value="" style="edgeStyle=orthogonalEdgeStyle;rounded=0;orthogonalLoop=1;jettySize=auto;html=1;" edge="1" parent="1" source="beOxGJcbKYumJ8Pze_IX-2" target="beOxGJcbKYumJ8Pze_IX-9">
          <mxGeometry relative="1" as="geometry" />
        </mxCell>
        <mxCell id="beOxGJcbKYumJ8Pze_IX-2" value="" style="rounded=1;whiteSpace=wrap;html=1;" vertex="1" parent="1">
          <mxGeometry x="341.98" y="-1070" width="140" height="80" as="geometry" />
        </mxCell>
        <mxCell id="beOxGJcbKYumJ8Pze_IX-3" value="e-Mercado" style="text;html=1;strokeColor=none;fillColor=none;align=center;verticalAlign=middle;whiteSpace=wrap;rounded=0;" vertex="1" parent="1">
          <mxGeometry x="361.98" y="-1055" width="100" height="50" as="geometry" />
        </mxCell>
        <mxCell id="beOxGJcbKYumJ8Pze_IX-4" value="" style="edgeStyle=orthogonalEdgeStyle;rounded=0;orthogonalLoop=1;jettySize=auto;html=1;" edge="1" parent="1" source="beOxGJcbKYumJ8Pze_IX-9" target="beOxGJcbKYumJ8Pze_IX-10">
          <mxGeometry relative="1" as="geometry" />
        </mxCell>
        <mxCell id="beOxGJcbKYumJ8Pze_IX-5" value="" style="edgeStyle=orthogonalEdgeStyle;rounded=0;orthogonalLoop=1;jettySize=auto;html=1;exitX=0.107;exitY=1.025;exitDx=0;exitDy=0;exitPerimeter=0;" edge="1" parent="1" source="beOxGJcbKYumJ8Pze_IX-9">
          <mxGeometry relative="1" as="geometry">
            <mxPoint x="356.96000000000004" y="-730" as="targetPoint" />
            <Array as="points" />
          </mxGeometry>
        </mxCell>
        <mxCell id="beOxGJcbKYumJ8Pze_IX-6" value="" style="edgeStyle=orthogonalEdgeStyle;rounded=0;orthogonalLoop=1;jettySize=auto;html=1;exitX=0.686;exitY=1.038;exitDx=0;exitDy=0;exitPerimeter=0;" edge="1" parent="1" source="beOxGJcbKYumJ8Pze_IX-9">
          <mxGeometry relative="1" as="geometry">
            <mxPoint x="571.98" y="-670" as="targetPoint" />
            <Array as="points">
              <mxPoint x="437.98" y="-800" />
              <mxPoint x="511.98" y="-800" />
            </Array>
          </mxGeometry>
        </mxCell>
        <mxCell id="beOxGJcbKYumJ8Pze_IX-7" value="" style="edgeStyle=orthogonalEdgeStyle;rounded=0;orthogonalLoop=1;jettySize=auto;html=1;" edge="1" parent="1">
          <mxGeometry relative="1" as="geometry">
            <mxPoint x="481.98" y="-850" as="sourcePoint" />
            <mxPoint x="1081.98" y="-630" as="targetPoint" />
            <Array as="points">
              <mxPoint x="481.98" y="-820" />
              <mxPoint x="1081.98" y="-820" />
            </Array>
          </mxGeometry>
        </mxCell>
        <mxCell id="beOxGJcbKYumJ8Pze_IX-8" value="" style="edgeStyle=orthogonalEdgeStyle;rounded=0;orthogonalLoop=1;jettySize=auto;html=1;" edge="1" parent="1" source="beOxGJcbKYumJ8Pze_IX-9">
          <mxGeometry relative="1" as="geometry">
            <mxPoint x="1241.98" y="-820" as="targetPoint" />
          </mxGeometry>
        </mxCell>
        <mxCell id="beOxGJcbKYumJ8Pze_IX-9" value="Compradores" style="rounded=1;whiteSpace=wrap;html=1;" vertex="1" parent="1">
          <mxGeometry x="341.98" y="-910" width="140" height="80" as="geometry" />
        </mxCell>
        <mxCell id="beOxGJcbKYumJ8Pze_IX-10" value="" style="rounded=1;whiteSpace=wrap;html=1;" vertex="1" parent="1">
          <mxGeometry x="91.98" y="-810" width="180" height="270" as="geometry" />
        </mxCell>
        <mxCell id="beOxGJcbKYumJ8Pze_IX-11" value="" style="endArrow=none;html=1;exitX=-0.011;exitY=0.129;exitDx=0;exitDy=0;exitPerimeter=0;" edge="1" parent="1" source="beOxGJcbKYumJ8Pze_IX-10">
          <mxGeometry width="50" height="50" relative="1" as="geometry">
            <mxPoint x="111.98" y="-760" as="sourcePoint" />
            <mxPoint x="272.98" y="-776" as="targetPoint" />
            <Array as="points" />
          </mxGeometry>
        </mxCell>
        <mxCell id="beOxGJcbKYumJ8Pze_IX-12" value="Informacion de articulos" style="text;html=1;strokeColor=none;fillColor=none;align=center;verticalAlign=middle;whiteSpace=wrap;rounded=0;" vertex="1" parent="1">
          <mxGeometry x="111.98" y="-800" width="140" height="30" as="geometry" />
        </mxCell>
        <mxCell id="beOxGJcbKYumJ8Pze_IX-13" value="○ Nombre&lt;br/&gt;&lt;br&gt;○ Descripción&lt;br/&gt;&lt;br&gt;○ Categoría a la que pertenece&lt;br&gt;&amp;nbsp;○ Precio&lt;br/&gt;&lt;br&gt;○ Moneda (Pesos o Dólares)&lt;br/&gt;○ Cantidad de comprados&lt;br&gt;&amp;nbsp;○ Imágenes&lt;br&gt;&amp;nbsp;○ Productos relacionados&lt;br/&gt;&lt;br&gt;○ Puntuación y comentarios&lt;br/&gt;" style="text;html=1;strokeColor=none;fillColor=none;align=center;verticalAlign=middle;whiteSpace=wrap;rounded=0;" vertex="1" parent="1">
          <mxGeometry x="101.98" y="-730" width="150" height="140" as="geometry" />
        </mxCell>
        <mxCell id="beOxGJcbKYumJ8Pze_IX-14" value="Listado de articulos" style="swimlane;startSize=30;" vertex="1" parent="1">
          <mxGeometry x="300" y="-750" width="200" height="200" as="geometry" />
        </mxCell>
        <mxCell id="beOxGJcbKYumJ8Pze_IX-15" value="&amp;nbsp;-Precio (creciente)&lt;br&gt;- Relevancia* (decreciente) {se medirá a partir de la cantidad vendidos}&lt;br&gt;-Rango de precio&lt;br&gt;-Info completa de un articulo" style="text;html=1;strokeColor=none;fillColor=none;align=center;verticalAlign=middle;whiteSpace=wrap;rounded=0;" vertex="1" parent="1">
          <mxGeometry x="291.98" y="-680" width="180" height="130" as="geometry" />
        </mxCell>
        <mxCell id="beOxGJcbKYumJ8Pze_IX-16" value="Procesos de Compra" style="swimlane;" vertex="1" parent="1">
          <mxGeometry x="571.98" y="-680" width="290" height="300" as="geometry" />
        </mxCell>
        <mxCell id="beOxGJcbKYumJ8Pze_IX-17" value="Carrito de Compras:&amp;nbsp;○ Los artículos seleccionados para comprar.&lt;br/&gt;○ El costo unitario de un artículo.&lt;br/&gt;○ La cantidad a comprar de cada artículo.&lt;br/&gt;○ El costo total del costo unitario por la cantidad respectiva.&lt;br/&gt;○ El subtotal que será la sumatoria de los costos total por artículo.&lt;br/&gt;○ Costo de envío.&lt;br/&gt;○ El costo total.&lt;br/&gt;○ Deberá seleccionar forma de pago.&lt;br/&gt;○ Al seleccionar la finalización del proceso de compras, se simulará que la&lt;br/&gt;orden ha sido generada con éxito." style="text;html=1;strokeColor=none;fillColor=none;align=center;verticalAlign=middle;whiteSpace=wrap;rounded=0;" vertex="1" parent="beOxGJcbKYumJ8Pze_IX-16">
          <mxGeometry x="5" y="10" width="280" height="310" as="geometry" />
        </mxCell>
        <mxCell id="beOxGJcbKYumJ8Pze_IX-18" value="Método de envío" style="swimlane;" vertex="1" parent="1">
          <mxGeometry x="961.98" y="-630" width="200" height="200" as="geometry" />
        </mxCell>
        <mxCell id="beOxGJcbKYumJ8Pze_IX-19" value="● Dirección: calle, número, esquina.&lt;br/&gt;● País.&lt;br/&gt;&lt;br&gt;● Tipo de envío:&lt;br/&gt;○ Premium (2-5 días) - Costo del 15% sobre el subtotal.&lt;br/&gt;○ Express (5-8 días) - Costo del 7% sobre el subtotal.&lt;br/&gt;○ Standard (12 a 15 días) - Costo del 5% sobre el subtotal.t" style="text;html=1;strokeColor=none;fillColor=none;align=center;verticalAlign=middle;whiteSpace=wrap;rounded=0;" vertex="1" parent="beOxGJcbKYumJ8Pze_IX-18">
          <mxGeometry y="30" width="200" height="150" as="geometry" />
        </mxCell>
        <mxCell id="beOxGJcbKYumJ8Pze_IX-20" value="Forma de Pago" style="swimlane;" vertex="1" parent="1">
          <mxGeometry x="1171.98" y="-820" width="170" height="140" as="geometry" />
        </mxCell>
        <mxCell id="beOxGJcbKYumJ8Pze_IX-21" value="Tarjeta de crédito&lt;br&gt;O&lt;br&gt;Transferencia Bancaria" style="text;html=1;align=center;verticalAlign=middle;resizable=0;points=[];autosize=1;strokeColor=none;" vertex="1" parent="beOxGJcbKYumJ8Pze_IX-20">
          <mxGeometry x="15" y="50" width="140" height="50" as="geometry" />
        </mxCell>
        <mxCell id="beOxGJcbKYumJ8Pze_IX-23" value="" style="endArrow=none;html=1;entryX=1.013;entryY=0.565;entryDx=0;entryDy=0;entryPerimeter=0;" edge="1" parent="1" target="beOxGJcbKYumJ8Pze_IX-10">
          <mxGeometry width="50" height="50" relative="1" as="geometry">
            <mxPoint x="300" y="-550" as="sourcePoint" />
            <mxPoint x="420" y="-770" as="targetPoint" />
          </mxGeometry>
        </mxCell>
      </root>
    </mxGraphModel>
  </diagram>
</mxfile>
